<svg width="176" height="72" fill="none" xmlns="http://www.w3.org/2000/svg"><path d="M136.086 66.372l-.309-1.691c-.341.061-.898.153-1.363.153-1.579 0-2.168-.645-2.168-2.122v-9.164h3.655l-.279-1.723h-3.376v-5.381l-2.013.338v5.044h-2.26v1.722h2.26v9.503c0 2.675 1.518 3.567 3.81 3.567.867 0 1.61-.123 2.043-.246zm-10.591-12.947l-.34-1.907c-2.416.062-4.119 1.66-5.203 3.29l-.465-2.983h-1.517v14.547h2.044v-9.134c.991-1.937 3.066-3.66 5.481-3.813zm-17.125-1.907c-3.686 0-6.566 2.768-6.566 7.596 0 4.798 2.818 7.566 6.566 7.566 3.747 0 6.658-2.768 6.658-7.566 0-4.828-2.849-7.596-6.658-7.596zm0 13.44c-2.664 0-4.491-2.307-4.491-5.844 0-3.66 1.765-5.874 4.491-5.874 2.756 0 4.552 2.307 4.552 5.874 0 3.63-1.796 5.843-4.552 5.843zM77.4 51.518c-2.136 0-3.591 1.107-4.737 2.399l-.34-2.092h-1.58V72l2.044-.338v-5.813c1.052.43 2.353.708 3.809.708 3.561 0 6.689-2.553 6.689-7.873 0-4.86-2.694-7.166-5.884-7.166zm-.866 13.316c-1.518 0-2.602-.307-3.747-.86v-8.027c1.331-1.6 2.663-2.615 4.397-2.615 2.323 0 4.026 1.907 4.026 5.444 0 4.06-2.044 6.058-4.676 6.058zm-10.096 1.538V51.825h-2.044v10.518c-1.61 1.569-3.19 2.491-4.738 2.491-1.858 0-2.725-1.107-2.725-2.983V51.825h-2.044V62.22c0 2.768 1.424 4.46 4.366 4.46 1.982 0 3.655-1.046 5.265-2.46l.34 2.152h1.58zm-14.855-5.551c0-3.08-1.595-4.603-5.528-6.315-3.257-1.435-4.268-2.347-4.268-4.239 0-1.83 1.383-3.326 3.87-3.326 1.782 0 3.258.548 4.455 1.343l.31-2.107c-1.105-.64-2.674-1.097-4.666-1.097-3.5 0-6.08 2.138-6.08 5.305 0 2.958 1.476 4.3 5.528 6.069 3.225 1.404 4.268 2.44 4.268 4.516 0 2.378-1.873 3.782-4.361 3.782-2.147 0-4.114-.763-5.404-1.583l-.31 2.132c1.414.733 3.35 1.312 5.62 1.312 3.712.005 6.566-2.194 6.566-5.792zM76.219 41.84l-.14-.794c-1.006.026-1.718.692-2.167 1.374l-.196-1.246h-.63v6.064h.852V43.43c.407-.81 1.275-1.528 2.28-1.59zm-7.329-.794c-1.533 0-2.736 1.153-2.736 3.163 0 1.999 1.177 3.152 2.736 3.152 1.564 0 2.777-1.153 2.777-3.152-.005-2.01-1.193-3.163-2.777-3.163zm0 5.597c-1.11 0-1.869-.963-1.869-2.434 0-1.528.739-2.45 1.869-2.45 1.15 0 1.9.963 1.9 2.45-.006 1.512-.754 2.434-1.9 2.434zm-3.33-7.75l-.128-.779a3.355 3.355 0 00-.439-.025c-1.043 0-1.714.512-1.714 1.625v1.46h-.929v.718h.93v5.346h.836v-5.346h1.367l-.118-.718H64.11v-1.399c0-.666.351-.933.93-.933.237 0 .402.026.52.051zm-6.188-5.438c0-4.029-1.982-7.288-5.946-7.288-3.623 0-6.287 2.89-6.287 7.565 0 5.013 2.757 7.596 6.597 7.596 2.26 0 4.15-.83 5.605-2.06l-.31-1.846c-1.517 1.292-3.22 2.153-5.171 2.153-2.942 0-4.615-2.091-4.677-5.69h10.189v-.43zm-10.127-1.169c.403-2.921 2.013-4.49 4.15-4.49 2.385 0 3.685 1.876 3.871 4.49h-8.02zm-4.893 4.798c0-2.583-1.672-3.69-5.14-4.613-2.478-.646-3.283-1.26-3.283-2.46s.96-2.06 2.973-2.06c1.455 0 2.942.43 4.274 1.137l.34-1.937a11.01 11.01 0 00-4.552-.985c-3.035 0-4.986 1.661-4.986 3.937 0 2.399 1.393 3.444 4.645 4.275 2.911.769 3.778 1.414 3.778 2.86 0 1.476-1.27 2.337-3.313 2.337-1.951 0-3.748-.707-5.11-1.568l-.34 1.968c1.269.707 3.313 1.322 5.264 1.322 3.376 0 5.45-1.568 5.45-4.213zM25.373 26.166c-2.074 0-3.747.523-5.45 1.261l.279 1.815c1.61-.769 3.313-1.292 5.048-1.292 1.858 0 3.035.83 3.035 2.799v.953c-6.628.646-9.415 2.245-9.415 5.659 0 2.583 1.827 3.967 4.367 3.967 2.106 0 3.809-.984 5.172-2.245l.34 1.938h1.549V30.657c-.006-2.984-1.673-4.49-4.924-4.49zm2.906 11.256c-1.424 1.323-3.158 2.184-4.738 2.184-1.548 0-2.632-.8-2.632-2.368 0-1.968 1.61-3.352 7.37-3.937v4.121zm-12.217 1.892l-.31-2.015c-1.718 1.313-3.777 2.194-6.048 2.194-4.61 0-7.526-3.629-7.526-9.026 0-5.336 2.885-8.996 7.556-8.996 2.148 0 3.99.826 5.652 2.046l.336-2.138c-1.595-1.097-3.562-1.799-5.957-1.799C3.928 19.58 0 24.065 0 30.528c0 6.495 3.871 10.887 9.61 10.887 2.52 0 4.852-.912 6.452-2.101zM165.316 7.043c-1.765 0-2.973 1.753-4.274 4.551l1.053.492c.898-1.845 1.672-3.229 2.509-3.229.433 0 .557.4.557.769 0 1.999-2.044 5.505-2.044 7.842 0 1.845 1.115 3.014 2.787 3.014 1.766 0 3.717-1.445 5.668-4.798l.185.093-.247 1.168c-1.239 5.66-3.097 7.904-5.884 7.904-.62 0-1.208-.154-1.611-.369.403-.308.651-.861.682-1.292.031-.8-.465-1.445-1.394-1.445-1.053 0-1.734 1.015-1.734 1.907 0 1.876 2.137 2.49 3.995 2.49 3.809 0 6.472-2.306 7.928-8.334L176 7.227h-2.354c-2.074 8.826-5.047 11.318-6.875 11.318-.929 0-1.238-.554-1.238-1.323 0-2.06 1.951-4.798 1.951-7.535.031-1.691-.898-2.644-2.168-2.644zm-16.383 14.085h2.509c2.044-7.473 4.645-11.287 5.915-11.871-.093 1.107.464 1.753 1.301 1.753.929 0 1.703-.984 1.703-2.184 0-1.107-.712-1.783-1.765-1.783-1.858 0-3.376 2.337-5.265 6.273l-.248-.092c.372-1.138.682-2.522.682-3.598 0-1.63-.713-2.522-1.951-2.522-1.704 0-2.973 1.66-4.243 4.49l1.053.492c.96-1.937 1.796-3.475 2.663-3.475.588 0 .867.461.248 2.83l-2.602 9.687zm-6.219.277c1.332 0 2.694-1.046 3.995-4.89l-1.053-.338c-.805 2.122-1.486 3.413-2.354 3.413-.588 0-.743-.523-.743-.922 0-.554.124-1.23.465-2.522l2.415-8.919H142.9c-2.478 9.072-5.358 12.24-7.123 12.24-.805 0-1.084-.553-1.084-1.322 0-2.368 2.168-5.659 2.168-8.427.031-1.753-.898-2.675-2.168-2.675-1.796 0-2.973 1.753-4.274 4.52l1.053.492c1.053-2.09 1.704-3.198 2.478-3.198.464 0 .588.4.588.769 0 2.06-2.26 6.12-2.26 8.703 0 1.876 1.022 3.076 2.57 3.076 2.106 0 4.181-2.122 6.163-6.243l.216.092c-.371 1.168-.681 2.706-.681 3.537 0 1.845.898 2.614 2.168 2.614zM125.186 7.043c-1.673 0-3.283 1.23-4.584 3.383l-.217-.093L123.358 0h-5.233l-.434 1.66h2.88l-2.973 10.61c-.433 1.539-.867 3.353-.867 4.706 0 2.737 1.703 4.429 4.367 4.429 3.716 0 7.835-4.429 7.835-9.626 0-2.83-1.487-4.736-3.747-4.736zm-3.748 12.916c-1.672 0-2.322-1.291-2.322-3.075 0-3.045 2.57-8.12 5.326-8.12 1.27 0 2.013 1.016 2.013 2.953 0 3.045-1.982 8.242-5.017 8.242zm-13.006.001c-1.704 0-2.911-1.108-2.911-3.599 0-.277 0-.584.062-.892 6.379-.676 9.321-2.89 9.321-5.597 0-1.6-1.208-2.83-3.437-2.83-4.088 0-8.424 4.49-8.424 9.196 0 3.198 1.951 5.167 4.738 5.167 2.88 0 4.708-1.692 6.194-3.937l-.96-.615c-1.363 1.968-2.88 3.106-4.583 3.106zm2.57-11.687c1.053 0 1.672.676 1.672 1.66 0 1.907-1.61 3.69-6.875 4.398.713-2.86 2.726-6.058 5.203-6.058zM95.022 18.79c0 1.63.836 2.615 2.354 2.615 1.486 0 2.787-1.046 4.087-4.89l-1.052-.338c-.775 2.122-1.487 3.413-2.385 3.413-.526 0-.712-.461-.712-.922 0-.554.124-1.261.464-2.522L102.176 0h-5.234l-.464 1.66h2.91l-3.623 13.225c-.495 1.845-.743 3.045-.743 3.906zm-5.11.8c-.62 0-.743-.523-.743-.922 0-.585.124-1.261.465-2.522L94.03 0h-5.234l-.464 1.66h2.911l-2.137 7.812c-.371-1.63-1.455-2.43-2.942-2.43-1.548 0-3.128.862-4.46 2.184-1.765 1.753-3.003 4.521-3.003 7.535 0 2.83 1.517 4.644 3.716 4.644 1.672 0 3.283-1.2 4.583-3.353l.217.093c-.03.215-.093.492-.093.769 0 1.691.96 2.49 2.137 2.49 1.424 0 2.756-1.045 4.057-4.89l-1.053-.337c-.774 2.122-1.517 3.413-2.354 3.413zm-6.658.031c-1.3 0-2.106-1.046-2.106-3.045 0-3.198 2.106-8.15 5.11-8.15 1.58 0 2.199 1.2 2.199 2.83 0 3.014-2.478 8.365-5.203 8.365zM59.16 9.995c0-1.876-.928-2.952-2.322-2.952-1.796 0-3.128 1.783-4.429 4.551l1.053.492c.991-1.906 1.89-3.475 2.88-3.475.465 0 .589.43.589.861 0 2.46-2.663 6.397-2.694 9.288 0 1.722.96 2.645 2.322 2.645 1.456 0 2.85-1.108 4.15-4.89l-1.053-.338c-.867 2.245-1.61 3.413-2.384 3.413-.527 0-.713-.4-.713-.8 0-2.03 2.602-6.242 2.602-8.795zm1.642-7.596c0-.923-.589-1.507-1.456-1.507-1.177 0-1.889 1.169-1.889 2.153 0 .953.65 1.476 1.394 1.476 1.207 0 1.95-1.169 1.95-2.122zm-36.93 18.729h7.742l.397-1.584h-2.823l4.145-16.622h.18l2.153 18.237h1.104L48.135 2.922h.243l-4.175 16.622h-2.581l-.367 1.584h8.537l.367-1.584h-3.345L50.99 2.8h3.319l.366-1.584h-7.432l-9.518 15.613h-.093L35.97 1.215h-7.216l-.366 1.584h3.195L27.37 19.544h-3.128l-.371 1.584zm49.937-1.538c-.62 0-.743-.523-.743-.922 0-.585.123-1.261.464-2.522L77.928 0h-5.234l-.465 1.66h2.911l-2.136 7.812c-.372-1.63-1.456-2.43-2.942-2.43-1.549 0-3.128.862-4.46 2.184-1.765 1.753-3.004 4.521-3.004 7.535 0 2.83 1.518 4.644 3.716 4.644 1.673 0 3.283-1.2 4.584-3.353l.217.093c-.031.215-.093.492-.093.769 0 1.691.96 2.49 2.136 2.49 1.425 0 2.757-1.045 4.057-4.89l-1.053-.337c-.774 2.122-1.517 3.413-2.353 3.413zm-6.659.031c-1.3 0-2.105-1.046-2.105-3.045 0-3.198 2.105-8.15 5.11-8.15 1.579 0 2.198 1.2 2.198 2.83 0 3.014-2.477 8.365-5.203 8.365zm26.076 31.897c-2.137 0-3.592 1.107-4.738 2.399l-.34-2.092h-1.58V72l2.044-.338v-5.813c1.053.43 2.353.708 3.809.708 3.561 0 6.69-2.553 6.69-7.873 0-4.86-2.695-7.166-5.885-7.166zm-.867 13.316c-1.517 0-2.601-.307-3.747-.86v-8.027c1.331-1.6 2.663-2.615 4.397-2.615 2.323 0 4.026 1.907 4.026 5.444 0 4.06-2.044 6.058-4.676 6.058z" fill="#0D395F"/></svg>